<svg width="50" height="41" viewBox="0 0 50 41" fill="none" xmlns="http://www.w3.org/2000/svg">
<path d="M19.9242 20.9414C20.4125 21.4297 21.2039 21.4297 21.6922 20.9414L22.5758 20.0578C23.0641 19.5695 23.0641 18.7781 22.5758 18.2898L19.7852 15.5L22.575 12.7094C23.0633 12.2211 23.0633 11.4297 22.575 10.9414L21.6914 10.0578C21.2031 9.56953 20.4117 9.56953 19.9234 10.0578L15.3656 14.6156C14.8773 15.1039 14.8773 15.8953 15.3656 16.3836L19.9242 20.9414ZM27.425 20.0586L28.3086 20.9422C28.7969 21.4305 29.5883 21.4305 30.0766 20.9422L34.6344 16.3844C35.1227 15.8961 35.1227 15.1047 34.6344 14.6164L30.0766 10.0586C29.5883 9.57031 28.7969 9.57031 28.3086 10.0586L27.425 10.9422C26.9367 11.4305 26.9367 12.2219 27.425 12.7102L30.2148 15.5L27.425 18.2906C26.9367 18.7789 26.9367 19.5703 27.425 20.0586ZM48.75 33H29.8078C29.75 34.5477 28.6586 35.5 27.25 35.5H22.5C21.0398 35.5 19.9203 34.1352 19.9398 33H1.25C0.5625 33 0 33.5625 0 34.25V35.5C0 38.25 2.25 40.5 5 40.5H45C47.75 40.5 50 38.25 50 35.5V34.25C50 33.5625 49.4375 33 48.75 33ZM45 4.25C45 2.1875 43.3125 0.5 41.25 0.5H8.75C6.6875 0.5 5 2.1875 5 4.25V30.5H45V4.25ZM40 25.5H10V5.5H40V25.5Z" fill="#4E0559"/>
</svg>
