<svg width="45" height="51" viewBox="0 0 45 51" fill="none" xmlns="http://www.w3.org/2000/svg">
<path d="M34.6699 31.5C32.4621 31.5 30.4329 32.2636 28.8311 33.5405L18.8227 27.2853C19.119 25.9446 19.119 24.5553 18.8227 23.2146L28.8311 16.9594C30.4329 18.2364 32.4621 19 34.6699 19C39.8476 19 44.0449 14.8026 44.0449 9.625C44.0449 4.44736 39.8476 0.25 34.6699 0.25C29.4923 0.25 25.2949 4.44736 25.2949 9.625C25.2949 10.324 25.3721 11.0049 25.5172 11.6603L15.5088 17.9155C13.9069 16.6386 11.8777 15.875 9.66992 15.875C4.49229 15.875 0.294922 20.0724 0.294922 25.25C0.294922 30.4276 4.49229 34.625 9.66992 34.625C11.8777 34.625 13.9069 33.8614 15.5088 32.5845L25.5172 38.8397C25.3693 39.5081 25.2947 40.1905 25.2949 40.875C25.2949 46.0526 29.4923 50.25 34.6699 50.25C39.8476 50.25 44.0449 46.0526 44.0449 40.875C44.0449 35.6974 39.8476 31.5 34.6699 31.5Z" fill="#4E0559"/>
</svg>
