<svg width="51" height="51" viewBox="0 0 51 51" fill="none" xmlns="http://www.w3.org/2000/svg">
<path d="M50.1465 43.4824L40.4102 33.7461C39.9707 33.3066 39.375 33.0625 38.75 33.0625H37.1582C39.8535 29.6152 41.4551 25.2793 41.4551 20.5625C41.4551 9.3418 32.3633 0.25 21.1426 0.25C9.92188 0.25 0.830078 9.3418 0.830078 20.5625C0.830078 31.7832 9.92188 40.875 21.1426 40.875C25.8594 40.875 30.1953 39.2734 33.6426 36.5781V38.1699C33.6426 38.7949 33.8867 39.3906 34.3262 39.8301L44.0625 49.5664C44.9805 50.4844 46.4648 50.4844 47.373 49.5664L50.1367 46.8027C51.0547 45.8848 51.0547 44.4004 50.1465 43.4824ZM21.1426 33.0625C14.2383 33.0625 8.64258 27.4766 8.64258 20.5625C8.64258 13.6582 14.2285 8.0625 21.1426 8.0625C28.0469 8.0625 33.6426 13.6484 33.6426 20.5625C33.6426 27.4668 28.0566 33.0625 21.1426 33.0625Z" fill="#4E0559"/>
</svg>
