<svg width="44" height="51" viewBox="0 0 44 51" fill="none" xmlns="http://www.w3.org/2000/svg">
<path d="M43.875 23.9375V33.3125C43.875 33.6137 43.8402 33.914 43.7712 34.2072L40.6462 47.4885C40.2311 49.2529 38.6564 50.5 36.8438 50.5H16.5313C15.9151 50.5 15.3077 50.3542 14.7587 50.0746C14.2096 49.7951 13.7345 49.3896 13.3721 48.8913L0.872367 31.7038C-0.396481 29.9591 -0.0107388 27.516 1.73389 26.2472C3.47871 24.9782 5.92178 25.3641 7.19063 27.1088L10.2813 31.3586V4.40625C10.2813 2.24893 12.0301 0.5 14.1875 0.5C16.3449 0.5 18.0938 2.24893 18.0938 4.40625V23.9375H18.875V20.0312C18.875 17.8739 20.6238 16.125 22.7813 16.125C24.9387 16.125 26.6875 17.8739 26.6875 20.0312V23.9375H27.4688V21.5938C27.4688 19.4364 29.2176 17.6875 31.375 17.6875C33.5324 17.6875 35.2813 19.4364 35.2813 21.5938V23.9375H36.0625C36.0625 21.7802 37.8113 20.0312 39.9688 20.0312C42.1262 20.0312 43.875 21.7802 43.875 23.9375ZM18.875 31.75H18.0938V41.125H18.875V31.75ZM27.4688 31.75H26.6875V41.125H27.4688V31.75ZM36.0625 31.75H35.2813V41.125H36.0625V31.75Z" fill="#4E0559"/>
</svg>
