<svg width="32" height="51" viewBox="0 0 32 51" fill="none" xmlns="http://www.w3.org/2000/svg">
<path d="M26.9375 0.5H5.0625C2.47461 0.5 0.375 2.59961 0.375 5.1875V45.8125C0.375 48.4004 2.47461 50.5 5.0625 50.5H26.9375C29.5254 50.5 31.625 48.4004 31.625 45.8125V5.1875C31.625 2.59961 29.5254 0.5 26.9375 0.5ZM16 47.375C14.2715 47.375 12.875 45.9785 12.875 44.25C12.875 42.5215 14.2715 41.125 16 41.125C17.7285 41.125 19.125 42.5215 19.125 44.25C19.125 45.9785 17.7285 47.375 16 47.375ZM26.9375 36.8281C26.9375 37.4727 26.4102 38 25.7656 38H6.23438C5.58984 38 5.0625 37.4727 5.0625 36.8281V6.35938C5.0625 5.71484 5.58984 5.1875 6.23438 5.1875H25.7656C26.4102 5.1875 26.9375 5.71484 26.9375 6.35938V36.8281Z" fill="#4E0559"/>
</svg>
